# xmcd
#
# Track frame offsets: 
#        150
#        11052
#        22682
#        35935
#        47122
#        62222
#        74175
#        83867
#        96065
#        108652
#
# Disc length: 1642 seconds
#
# Revision: 1
# Processed by: cddbd v1.4PL0 Copyright (c) Steve Scherf et al.
# Submitted via: ExactAudioCopy v0.90b3
#
DISCID=8b06680a
DTITLE=The Kendalls - Best Of The Best Of The Kendalls
DYEAR=1900
DGENRE=Country
TTITLE0=Heaven's Just A Sin Away
TTITLE1=Sweet Desire
TTITLE2=Pittsburgh Steelers
TTITLE3=It Don't Feel Like Sinnin To Me
TTITLE4=Just Like Real People
TTITLE5=I'm Already Blue
TTITLE6=You'd Make An Angel Want To Cheat
TTITLE7=Put It Off Until Tomorrow
TTITLE8=Heart Of The Matter
TTITLE9=Makin' Believe
EXTD=Jeannie and Royce Kendall - Father and Daughter
EXTT0=
EXTT1=
EXTT2=
EXTT3=
EXTT4=
EXTT5=
EXTT6=
EXTT7=
EXTT8=
EXTT9=
PLAYORDER=
